<svg width="55" height="112" viewBox="0 0 55 112" fill="none" xmlns="http://www.w3.org/2000/svg">
<path d="M9.42729 111.372C7.97356 111.475 6.51709 111.216 5.18838 110.617C3.85967 110.018 2.70032 109.099 1.81431 107.942C0.928295 106.785 0.343289 105.426 0.111801 103.987C-0.119688 102.548 0.00954942 101.074 0.48793 99.6977C2.2911 95.3066 4.52579 91.1054 7.15911 87.1558C8.35993 85.1545 10.1612 85.5548 11.2285 87.1558C13.7997 91.0489 16.0316 95.1557 17.8997 99.4309C18.3987 100.784 18.5604 102.238 18.3707 103.668C18.1811 105.097 17.6459 106.459 16.8114 107.635C15.977 108.811 14.8685 109.766 13.5818 110.417C12.2952 111.069 10.8691 111.396 9.42729 111.372Z" fill="black"/>
<path d="M50.9232 3.89941C49.7353 2.32529 48.1005 1.1459 46.232 0.515157C44.3636 -0.115592 42.3484 -0.168387 40.4495 0.363687C38.5454 0.908937 36.8679 2.05376 35.6661 3.62812C34.4643 5.20249 33.8022 7.12242 33.7783 9.10292C32.9778 16.6414 31.777 17.3752 24.5054 15.1737C22.9345 14.6483 21.2243 14.7261 19.7076 15.392C18.1909 16.0578 16.9762 17.2641 16.2997 18.7761C15.6543 20.3084 15.6043 22.0266 16.1597 23.5938C16.715 25.1611 17.8355 26.4644 19.3017 27.2485L22.1037 28.6495C21.3955 29.5472 20.7703 30.5073 20.2358 31.5181C16.3665 40.0572 12.4972 48.5296 8.69459 57.0687C6.69816 61.2213 5.78045 65.8101 6.02615 70.4111C6.25935 73.0076 6.25935 75.6198 6.02615 78.2164C5.72736 79.4962 5.852 80.8385 6.38131 82.0415C6.91062 83.2445 7.81603 84.2432 8.96149 84.8876C10.2724 85.4382 11.7362 85.5058 13.0922 85.0782C14.4482 84.6506 15.6085 83.7557 16.3665 82.5527C17.512 80.9424 18.8824 79.5045 20.4359 78.2831C24.8958 75.3871 28.364 71.1973 30.3759 66.275C33.9117 58.3363 37.5809 50.4643 41.0499 42.5256C41.6933 40.8495 42.228 39.1336 42.6509 37.3888L45.653 38.5895C47.2494 39.1968 49.0179 39.1686 50.5941 38.5109C52.1703 37.8531 53.4342 36.6157 54.1253 35.0538C54.7708 33.5215 54.8207 31.8033 54.2654 30.2361C53.7101 28.6689 52.5895 27.3655 51.1233 26.5814L49.3221 25.7142C48.5264 25.3927 47.8282 24.8693 47.2965 24.1957C46.7647 23.5221 46.4178 22.7216 46.2898 21.873C46.1619 21.0244 46.2573 20.1571 46.5668 19.3566C46.8763 18.5562 47.3891 17.8503 48.0546 17.3084C49.1539 16.309 50.1383 15.1902 50.9899 13.9729C52.1112 12.53 52.7145 10.7519 52.7024 8.92458C52.6903 7.09729 52.0636 5.32725 50.9232 3.89941ZM33.7115 47.7958C30.9763 53.7999 28.4414 59.9373 25.4393 65.808C23.9585 68.7381 21.9966 71.3991 19.6353 73.68C17.2337 75.9482 14.0982 74.8141 12.9641 70.8114C12.9815 68.7363 13.2732 66.6726 13.8314 64.6739C16.5666 58.0027 19.702 51.3315 22.7708 44.2601C23.3059 43.6626 24.0419 43.2827 24.8388 43.1927C26.5051 43.0927 28.1759 43.0927 29.8422 43.1927C31.3042 43.0807 32.7711 43.3329 34.1118 43.9265C35.3126 44.7938 34.3119 46.4616 33.7115 47.7958Z" fill="black"/>
</svg>
