<svg preserveAspectRatio="none" overflow="visible" style="display: block;" width="20" height="20" viewBox="0 0 20 20" fill="none" xmlns="http://www.w3.org/2000/svg">
<g id="add_circle">
<mask id="mask0_0_10" style="mask-type:alpha" maskUnits="userSpaceOnUse" x="0" y="0" width="20" height="20">
<rect id="Bounding box" x="0.333333" y="0.333333" width="19.3333" height="19.3333" fill="#D9D9D9" stroke="white" stroke-width="0.666667"/>
</mask>
<g mask="url(#mask0_0_10)">
<path id="add_circle_2" d="M9.55078 10.6901V13.1901C9.55078 13.4262 9.63064 13.6241 9.79036 13.7839C9.95009 13.9436 10.148 14.0234 10.3841 14.0234C10.6202 14.0234 10.8181 13.9436 10.9779 13.7839C11.1376 13.6241 11.2174 13.4262 11.2174 13.1901V10.6901H13.7174C13.9536 10.6901 14.1515 10.6102 14.3112 10.4505C14.4709 10.2908 14.5508 10.0929 14.5508 9.85677C14.5508 9.62066 14.4709 9.42274 14.3112 9.26302C14.1515 9.1033 13.9536 9.02344 13.7174 9.02344H11.2174V6.52344C11.2174 6.28733 11.1376 6.08941 10.9779 5.92969C10.8181 5.76997 10.6202 5.6901 10.3841 5.6901C10.148 5.6901 9.95009 5.76997 9.79036 5.92969C9.63064 6.08941 9.55078 6.28733 9.55078 6.52344V9.02344H7.05078C6.81467 9.02344 6.61675 9.1033 6.45703 9.26302C6.29731 9.42274 6.21745 9.62066 6.21745 9.85677C6.21745 10.0929 6.29731 10.2908 6.45703 10.4505C6.61675 10.6102 6.81467 10.6901 7.05078 10.6901H9.55078ZM10.3841 18.1901C9.23134 18.1901 8.148 17.9714 7.13411 17.5339C6.12023 17.0964 5.23828 16.5026 4.48828 15.7526C3.73828 15.0026 3.14453 14.1207 2.70703 13.1068C2.26953 12.0929 2.05078 11.0095 2.05078 9.85677C2.05078 8.70399 2.26953 7.62066 2.70703 6.60677C3.14453 5.59288 3.73828 4.71094 4.48828 3.96094C5.23828 3.21094 6.12023 2.61719 7.13411 2.17969C8.148 1.74219 9.23134 1.52344 10.3841 1.52344C11.5369 1.52344 12.6202 1.74219 13.6341 2.17969C14.648 2.61719 15.5299 3.21094 16.2799 3.96094C17.0299 4.71094 17.6237 5.59288 18.0612 6.60677C18.4987 7.62066 18.7174 8.70399 18.7174 9.85677C18.7174 11.0095 18.4987 12.0929 18.0612 13.1068C17.6237 14.1207 17.0299 15.0026 16.2799 15.7526C15.5299 16.5026 14.648 17.0964 13.6341 17.5339C12.6202 17.9714 11.5369 18.1901 10.3841 18.1901ZM10.3841 16.5234C12.2452 16.5234 13.8216 15.8776 15.1133 14.5859C16.4049 13.2943 17.0508 11.7179 17.0508 9.85677C17.0508 7.99566 16.4049 6.41927 15.1133 5.1276C13.8216 3.83594 12.2452 3.1901 10.3841 3.1901C8.523 3.1901 6.94661 3.83594 5.65495 5.1276C4.36328 6.41927 3.71745 7.99566 3.71745 9.85677C3.71745 11.7179 4.36328 13.2943 5.65495 14.5859C6.94661 15.8776 8.523 16.5234 10.3841 16.5234Z" fill="#00AFD6"/>
</g>
</g>
</svg>
